External Loads File
version=1
nRows=31
nColumns=13
Range=5.000000e-03-10 seconds
endheader
time 	forceRightX 	forceRightY 	forceRightZ 	pointRightX 	pointRightY 	pointRightZ 	forceLeftX 	forceLeftY 	forceLeftZ 	pointLeftX 	pointLeftY 	pointLeftZ 		
2.505000 8.150346 588.549638 -0.000000 0.392915 0.434477 -0.165942 18.350576 -162.016859 -0.000000 0.155836 0.183711 -0.411469
2.510000 -2.105005 601.740900 -0.000000 0.396891 0.428698 -0.165886 15.586561 -166.849958 -0.000000 0.151541 0.189253 -0.411712
2.515000 -11.813300 612.508560 -0.000000 0.401121 0.422686 -0.166191 13.014986 -167.865892 -0.000000 0.147431 0.195092 -0.411855
2.520000 -21.068317 621.437026 -0.000000 0.405125 0.416345 -0.166450 11.166096 -166.014430 -0.000000 0.143533 0.201304 -0.411683
2.525000 -30.058069 629.067940 -0.000000 0.408563 0.409628 -0.166336 10.384765 -162.352571 -0.000000 0.140037 0.207931 -0.412100
2.530000 -38.034938 635.891095 -0.000000 0.411904 0.402760 -0.166442 10.487075 -157.853456 -0.000000 0.136604 0.214782 -0.411867
2.535000 -44.685818 642.264308 -0.000000 0.415174 0.395713 -0.166720 11.224286 -153.212401 -0.000000 0.133504 0.222000 -0.411644
2.540000 -50.261491 648.367878 -0.000000 0.418030 0.388358 -0.166754 12.418381 -148.804471 -0.000000 0.130792 0.229332 -0.411473
2.545000 -54.103743 654.336343 -0.000000 0.420690 0.380900 -0.166822 13.658642 -144.791308 -0.000000 0.128313 0.236930 -0.411048
2.550000 -56.823683 660.134553 -0.000000 0.422685 0.373245 -0.166686 14.827817 -141.165902 -0.000000 0.126273 0.244569 -0.410740
2.555000 -57.856799 665.779123 -0.000000 0.424459 0.365456 -0.166665 15.608884 -137.845434 -0.000000 0.124599 0.252265 -0.410453
2.560000 -57.454167 671.194416 -0.000000 0.426014 0.357563 -0.166798 15.948545 -134.688329 -0.000000 0.123522 0.259985 -0.410360
2.565000 -55.388891 676.325653 -0.000000 0.427112 0.349533 -0.166747 15.750225 -131.594336 -0.000000 0.122631 0.267759 -0.410186
2.570000 -52.178540 681.030088 -0.000000 0.427956 0.341447 -0.166805 15.128797 -128.517380 -0.000000 0.122139 0.275485 -0.410114
2.575000 -47.535286 685.231798 -0.000000 0.428473 0.333305 -0.166845 14.144621 -125.511211 -0.000000 0.122057 0.283401 -0.410001
2.580000 -41.216543 688.900521 -0.000000 0.428889 0.324955 -0.166499 12.953424 -122.688678 -0.000000 0.122003 0.291496 -0.409111
2.585000 -34.567908 692.001236 -0.000000 0.428739 0.316490 -0.166805 12.004307 -120.143020 -0.000000 0.122583 0.299517 -0.408989
2.590000 -27.912705 694.668999 -0.000000 0.428417 0.307969 -0.166602 11.522287 -117.950038 -0.000000 0.123542 0.307414 -0.409022
2.595000 -21.551553 697.122630 -0.000000 0.427615 0.299447 -0.166766 11.654354 -116.128996 -0.000000 0.124993 0.315190 -0.409551
2.600000 -15.160335 699.687749 -0.000000 0.426550 0.290938 -0.166493 12.318497 -114.658689 -0.000000 0.126675 0.323065 -0.409572
2.605000 -8.651747 702.758683 -0.000000 0.425287 0.282013 -0.166484 13.344239 -113.478718 -0.000000 0.128627 0.330716 -0.409854
2.610000 -2.974865 706.776908 -0.000000 0.423535 0.273378 -0.166267 14.658171 -112.509004 -0.000000 0.131244 0.338280 -0.410148
2.615000 3.411969 712.212432 -0.000000 0.421540 0.264885 -0.166123 15.789237 -111.769396 -0.000000 0.134172 0.346312 -0.410428
2.620000 7.346197 719.509904 -0.000000 0.419180 0.256434 -0.165989 17.013210 -111.232267 -0.000000 0.137446 0.353256 -0.410730
2.625000 12.075113 729.031243 -0.000000 0.416520 0.248034 -0.165848 17.589258 -111.016289 -0.000000 0.141119 0.360381 -0.410905
2.630000 18.019835 741.037449 -0.000000 0.413331 0.239731 -0.165995 17.245032 -111.143034 -0.000000 0.145199 0.367680 -0.411027
2.635000 24.710601 755.671424 -0.000000 0.409871 0.231490 -0.165802 15.886865 -111.557686 -0.000000 0.149644 0.374907 -0.411043
2.640000 31.781311 772.919500 -0.000000 0.406048 0.223600 -0.165686 13.461733 -112.139523 -0.000000 0.154556 0.381957 -0.410997
2.645000 39.493396 792.592666 -0.000000 0.401880 0.215828 -0.165505 9.927963 -112.724921 -0.000000 0.159551 0.388868 -0.410981
2.650000 48.299665 814.354481 -0.000000 0.397255 0.208232 -0.165278 5.364427 -113.161404 -0.000000 0.165081 0.395390 -0.410998
2.655000 58.061722 837.801891 -0.000000 0.392404 0.200937 -0.165073 0.032883 -113.341211 -0.000000 0.170842 0.401912 -0.410861
